<svg xmlns="http://www.w3.org/2000/svg" viewBox="0 0 95 77"><defs><linearGradient id="i8yza" x1="47.49" x2="47.49" y1=".41" y2="53.37" gradientUnits="userSpaceOnUse"><stop offset="0" stop-color="#e2bf99"/><stop offset="1" stop-color="#cd8a73"/></linearGradient><linearGradient id="i8yzb" x1="71.07" x2="71.07" y1=".41" y2="53.37" gradientUnits="userSpaceOnUse"><stop offset="0" stop-color="#e2bf99"/><stop offset="1" stop-color="#cd8a73"/></linearGradient></defs><g><g><path fill="url(#i8yza)" d="M79.222 22.118c.162-.99.25-2.006.25-3.042C79.472 8.768 71.116.412 60.808.412A18.602 18.602 0 0 0 47.487 6.01 18.606 18.606 0 0 0 34.165.412C23.858.412 15.5 8.768 15.5 19.076c0 1.036.089 2.052.25 3.042C7.22 22.232.337 29.181.337 37.741c0 8.63 6.997 15.628 15.628 15.628h63.044c8.632 0 15.628-6.997 15.628-15.628.001-8.56-6.882-15.51-15.414-15.623z"/></g><g><path fill="url(#i8yzb)" d="M94.636 37.74c0 8.63-6.996 15.63-15.626 15.63H47.487V6.01A18.603 18.603 0 0 1 60.809.412c10.307 0 18.663 8.356 18.663 18.664 0 1.036-.09 2.053-.251 3.042 8.533.115 15.415 7.062 15.415 15.623z"/></g><g><path fill="#fffdf5" d="M40.064 58.47c0 8.62-6.989 15.609-15.61 15.609-8.62 0-15.609-6.988-15.609-15.61 0-8.62 6.988-15.609 15.61-15.609 8.62 0 15.609 6.989 15.609 15.61z"/><path fill="none" stroke="#707070" stroke-miterlimit="50" d="M40.064 58.47c0 8.62-6.989 15.609-15.61 15.609-8.62 0-15.609-6.988-15.609-15.61 0-8.62 6.988-15.609 15.61-15.609 8.62 0 15.609 6.989 15.609 15.61z"/></g><g><path fill="#fffdf5" d="M86.128 58.47c0 8.62-6.988 15.609-15.608 15.609-8.622 0-15.61-6.988-15.61-15.61 0-8.62 6.988-15.609 15.61-15.609 8.62 0 15.608 6.989 15.608 15.61z"/><path fill="none" stroke="#707070" stroke-miterlimit="50" d="M86.128 58.47c0 8.62-6.988 15.609-15.608 15.609-8.622 0-15.61-6.988-15.61-15.61 0-8.62 6.988-15.609 15.61-15.609 8.62 0 15.608 6.989 15.608 15.61z"/></g><g><path fill="#ba7c61" d="M70.52 71.823c-7.363 0-13.353-5.99-13.353-13.353 0-7.363 5.99-13.353 13.353-13.353 7.362 0 13.352 5.99 13.352 13.353 0 7.362-5.99 13.353-13.352 13.353zm-46.065 0c-7.363 0-13.353-5.99-13.353-13.353 0-7.363 5.99-13.353 13.353-13.353 7.362 0 13.352 5.99 13.352 13.353 0 7.362-5.99 13.353-13.352 13.353zm68.258-22.034h-6.586c-3.056-5.474-8.906-9.186-15.607-9.186-7.105 0-13.253 4.17-16.13 10.188a14.896 14.896 0 0 0-6.903-1.687 14.9 14.9 0 0 0-6.903 1.687c-2.878-6.02-9.026-10.188-16.13-10.188-6.702 0-12.551 3.712-15.608 9.186H2.26v7.033h4.406c-.05.543-.079 1.092-.079 1.648 0 9.852 8.015 17.866 17.866 17.866 9.852 0 17.866-8.014 17.866-17.866 0-1.047-.095-2.071-.269-3.07a10.275 10.275 0 0 1 5.436-1.56c1.925 0 3.775.536 5.435 1.56a17.85 17.85 0 0 0-.27 3.07c0 9.852 8.016 17.866 17.867 17.866 9.852 0 17.866-8.014 17.866-17.866 0-.556-.03-1.105-.08-1.648h4.408z"/></g><g><path fill="#ba7c61" d="M70.518 71.822c-7.362 0-13.351-5.989-13.351-13.351 0-7.365 5.989-13.353 13.35-13.353 7.366 0 13.355 5.988 13.355 13.353 0 7.362-5.99 13.35-13.354 13.35zm22.194-22.033h-6.585c-3.056-5.475-8.907-9.185-15.61-9.185-7.103 0-13.25 4.167-16.127 10.188a14.877 14.877 0 0 0-6.902-1.688h-.003v4.736h.003c1.923 0 3.774.536 5.433 1.56-.174 1-.268 2.022-.268 3.07 0 9.852 8.015 17.865 17.865 17.865 9.853 0 17.866-8.013 17.866-17.864 0-.558-.027-1.107-.078-1.65h4.406z"/></g></g></svg>