<svg xmlns="http://www.w3.org/2000/svg" viewBox="0 0 69 64"><g><g><path fill="#faf5dd" d="M35.191 53.57a8.525 8.525 0 0 0 16.886 1.668c5.407-.776 9.563-5.425 9.563-11.046a11.2 11.2 0 0 0-.24-2.307 11.156 11.156 0 0 0 5.704-9.736c0-3.532-1.642-6.679-4.203-8.724.326-1.048.501-2.163.501-3.318 0-6.165-4.997-11.162-11.161-11.162-.063 0-.125.004-.187.005a8.525 8.525 0 0 0-16.862 1.778V53.57z"/></g><g><path fill="#ba7c61" d="M53.805 40.774c-4.756 0-8.625-3.87-8.625-8.625 0-4.756 3.869-8.625 8.625-8.625v3.48a5.152 5.152 0 0 0-5.146 5.145 5.152 5.152 0 0 0 5.146 5.146z"/></g><g><path fill="#faf5dd" d="M34.207 10.728A8.525 8.525 0 0 0 17.322 9.06c-5.407.775-9.563 5.424-9.563 11.045 0 .791.084 1.563.24 2.307a11.156 11.156 0 0 0-5.705 9.736c0 3.532 1.643 6.68 4.204 8.724a11.156 11.156 0 0 0-.501 3.319c0 6.164 4.997 11.161 11.161 11.161.063 0 .125-.003.187-.004a8.525 8.525 0 0 0 16.862-1.778z"/></g><g><path fill="#ba7c61" d="M50.575 10.795c-.012 3.742-3.118 6.718-6.859 6.718v3.48c5.62 0 10.197-4.54 10.261-10.145 4.369.818 7.686 4.657 7.686 9.259 0 .956-.142 1.898-.423 2.801l-.353 1.135.928.741a9.38 9.38 0 0 1 3.55 7.365c0 3.401-1.846 6.55-4.817 8.22l-1.113.624.263 1.25c.134.64.203 1.296.203 1.949 0 3.903-2.44 7.351-5.941 8.752-.325-5.369-4.794-9.638-10.244-9.638v3.48c3.742 0 6.84 3.04 6.84 6.782v.062l-.185 1.27a6.796 6.796 0 0 1-6.655 5.456 6.793 6.793 0 0 1-6.785-6.786V10.728a6.793 6.793 0 0 1 6.785-6.785c3.185 0 5.976 2.257 6.636 5.368 0 0 .197 1.053.224 1.41l-.001.074zM18.823 53.578c-.293-3.73 3.118-6.793 6.86-6.793v-3.479c-5.62 0-10.197 4.54-10.262 10.144-4.368-.817-7.685-4.657-7.685-9.258 0-.956.142-1.899.423-2.802l.353-1.134-.928-.742a9.38 9.38 0 0 1-3.55-7.365c0-3.4 1.846-6.55 4.817-8.219l1.113-.625-.263-1.25a9.504 9.504 0 0 1-.203-1.948c0-3.904 2.44-7.352 5.941-8.753a10.189 10.189 0 0 0 2.985 6.632 10.197 10.197 0 0 0 7.259 3.006v-3.479a6.74 6.74 0 0 1-4.798-1.987c-1.282-1.282-2.173-3.05-2.042-4.858.023-.32.185-1.269.185-1.269a6.796 6.796 0 0 1 6.655-5.456 6.793 6.793 0 0 1 6.785 6.785V53.57a6.793 6.793 0 0 1-6.785 6.785c-3.185 0-5.976-2.258-6.636-5.368 0 0-.196-1.053-.224-1.409zM68.844 32.15c0-3.557-1.44-6.896-3.99-9.325.192-.89.288-1.8.288-2.718 0-6.731-5.182-12.275-11.767-12.851-1.445-4.006-5.31-6.792-9.66-6.792-3.885 0-7.274 2.171-9.016 5.364C32.957 2.635 29.57.463 25.683.463a10.29 10.29 0 0 0-9.765 7.096 12.912 12.912 0 0 0-6.715 4.062A12.887 12.887 0 0 0 6.1 21.552 12.924 12.924 0 0 0 .555 32.149c0 3.557 1.44 6.896 3.99 9.326-.192.889-.288 1.799-.288 2.717 0 6.731 5.182 12.275 11.767 12.851 1.445 4.006 5.309 6.792 9.659 6.792 3.886 0 7.274-2.171 9.017-5.364 1.742 3.193 5.13 5.364 9.016 5.364 4.48 0 8.412-2.92 9.765-7.096a12.912 12.912 0 0 0 6.715-4.062 12.888 12.888 0 0 0 3.103-9.93 12.925 12.925 0 0 0 5.545-10.598z"/></g><g><path fill="#ba7c61" d="M50.575 10.795c-.012 3.741-3.118 6.718-6.859 6.718v3.48c5.62 0 10.197-4.54 10.261-10.145 4.369.818 7.686 4.657 7.686 9.259 0 .956-.142 1.898-.423 2.801l-.353 1.135.928.741a9.38 9.38 0 0 1 3.55 7.365c0 3.401-1.846 6.55-4.817 8.22l-1.113.624.263 1.25c.134.64.203 1.296.203 1.949 0 3.903-2.44 7.351-5.941 8.752-.325-5.369-4.794-9.638-10.244-9.638v3.48c3.742 0 6.84 3.04 6.84 6.782v.062l-.185 1.27a6.796 6.796 0 0 1-6.655 5.456 6.793 6.793 0 0 1-6.785-6.786V10.728a6.793 6.793 0 0 1 6.785-6.785c3.185 0 5.976 2.257 6.636 5.368 0 0 .197 1.053.224 1.41l-.001.074zM34.699 58.471c1.743 3.193 5.13 5.364 9.017 5.364 4.48 0 8.411-2.92 9.765-7.096a12.912 12.912 0 0 0 6.715-4.062 12.888 12.888 0 0 0 3.103-9.93 12.924 12.924 0 0 0 5.545-10.598c0-3.557-1.44-6.896-3.989-9.325.19-.89.287-1.8.287-2.717 0-6.732-5.182-12.276-11.766-12.852C51.93 3.25 48.066.464 43.716.464c-3.886 0-7.274 2.17-9.016 5.363z"/></g><g><path fill="#ba7c61" d="M15.594 40.774v-3.48a5.152 5.152 0 0 0 5.146-5.145 5.152 5.152 0 0 0-5.146-5.146v-3.479c4.756 0 8.625 3.869 8.625 8.625s-3.87 8.625-8.625 8.625z"/></g></g></svg>