<svg xmlns="http://www.w3.org/2000/svg" viewBox="0 0 44 43"><defs><linearGradient id="ntw4a" x1="34.81" x2="34.81" y1="18.76" y2="41.9" gradientUnits="userSpaceOnUse"><stop offset="0" stop-color="#e2bf99"/><stop offset="1" stop-color="#cd8a73"/></linearGradient><linearGradient id="ntw4b" x1="22.06" x2="22.06" y1="8.51" y2="15.84" gradientUnits="userSpaceOnUse"><stop offset="0" stop-color="#e2bf99"/><stop offset="1" stop-color="#cd8a73"/></linearGradient><linearGradient id="ntw4c" x1="9.28" x2="9.28" y1="18.76" y2="41.88" gradientUnits="userSpaceOnUse"><stop offset="0" stop-color="#e2bf99"/><stop offset="1" stop-color="#cd8a73"/></linearGradient></defs><g><g><g><path fill="url(#ntw4a)" d="M36.15 23.335l7.433-4.576v21.02a2.992 2.992 0 0 1-.88 2.125l-.02-.02-16.628-12.281-.024-.04z"/></g><g><path fill="#ba7c61" d="M43.583 18.759l-7.434 4.576v-9.921z"/></g><g><path fill="#ba7c61" d="M42.682 41.884l.02.02a2.995 2.995 0 0 1-2.124.88H3.518a2.991 2.991 0 0 1-2.147-.903l16.67-12.33.005-.007 2.425 1.497a3.008 3.008 0 0 0 3.155.002l2.405-1.48.024.04z"/></g><g><path fill="#faf5dd" d="M28.485 8.512v7.333H15.629V8.512h-1.248v-3.95h15.334v3.95zm-20.538 14.8l10.099 6.232 2.425 1.497a3.008 3.008 0 0 0 3.155.002l2.405-1.48 10.118-6.228V2.63A2.406 2.406 0 0 0 33.743.224h-23.39A2.406 2.406 0 0 0 7.947 2.63z"/></g><g><path fill="#ba7c61" d="M29.715 4.562v3.95H14.38v-3.95z"/></g><g><path fill="url(#ntw4b)" d="M28.485 8.512v7.333H15.629V8.512h4.723v4.353l1.683-1.02 1.727 1.02V8.512z"/></g><g><path fill="#ba7c61" d="M23.762 8.536v4.329l-1.727-1.02-1.683 1.02V8.512h3.41z"/></g><g><path fill="url(#ntw4c)" d="M7.947 23.312l10.099 6.232-.005.008-16.67 12.33a2.988 2.988 0 0 1-.859-2.102V18.759h.056z"/></g><g><path fill="#ba7c61" d="M7.947 12.499v10.813l-7.38-4.553H.513z"/></g><g><path fill="#ba7c61" d="M24.938 20.631H14.624a.793.793 0 1 1 0-1.586h10.314a.793.793 0 1 1 0 1.586z"/></g><g><path fill="#ba7c61" d="M29.472 20.631h-2.38a.793.793 0 0 1 0-1.586h2.38a.793.793 0 0 1 0 1.586z"/></g><g><path fill="#ba7c61" d="M18.137 24.032h-3.513a.793.793 0 1 1 0-1.587h3.513a.793.793 0 1 1 0 1.587z"/></g><g><path fill="#ba7c61" d="M29.472 24.032H20.29a.793.793 0 1 1 0-1.587h9.18a.793.793 0 1 1 0 1.587z"/></g></g></g></svg>