<svg xmlns="http://www.w3.org/2000/svg" viewBox="0 0 43 51"><g><g><g><g><text fill="#b5bcc3" style="line-height:9px;font-kerning:normal" dominant-baseline="text-before-edge" font-family="'Panton','Panton-Bold'" font-size="5" font-style="none" font-weight="700" transform="translate(2 45)"><tspan>EUROCONTROL</tspan></text></g></g><g><g><g><path fill="#b5bcc3" d="M5.557 23.405v-.001a19.022 19.022 0 0 1-.365-3.721A18.759 18.759 0 0 1 8.413 9.136a18.986 18.986 0 0 1 5.095-5.095 18.687 18.687 0 0 1 3.203-1.738A18.747 18.747 0 0 1 24.054.82c2.543 0 5.013.5 7.342 1.483a18.77 18.77 0 0 1 5.994 4.042c.616.616 1.196 1.28 1.722 1.977l-7.717 3.47a10.727 10.727 0 0 0-7.34-2.888 10.71 10.71 0 0 0-4.197.847 10.782 10.782 0 0 0-3.426 2.31 10.76 10.76 0 0 0-2.261 3.31h9.259L5.558 23.404zm18.497 15.14a18.735 18.735 0 0 1-10.546-3.222 19.139 19.139 0 0 1-2.792-2.303 18.89 18.89 0 0 1-3.57-4.97h10.111a10.697 10.697 0 0 0 2.601 1.565c1.326.562 2.738.846 4.196.846a10.732 10.732 0 0 0 7.423-2.965h9.749a18.928 18.928 0 0 1-9.83 9.566 18.741 18.741 0 0 1-7.342 1.483z"/></g><g><path fill="#b5bcc3" d="M.066 26.896L42.49 7.828 24.545 26.896z"/></g></g></g></g></g></svg>