<svg xmlns="http://www.w3.org/2000/svg" viewBox="0 0 96 82"><defs><linearGradient id="n2jha" x1="47.86" x2="47.86" y1=".02" y2="9.08" gradientUnits="userSpaceOnUse"><stop offset="0" stop-color="#e2bf99"/><stop offset="1" stop-color="#cd8a73"/></linearGradient><linearGradient id="n2jhb" x1="56.12" x2="56.12" y1=".01" y2="9.08" gradientUnits="userSpaceOnUse"><stop offset="0" stop-color="#e2bf99"/><stop offset="1" stop-color="#cd8a73"/></linearGradient><linearGradient id="n2jhc" x1="47.86" x2="47.86" y1="30.64" y2="81.82" gradientUnits="userSpaceOnUse"><stop offset="0" stop-color="#e2bf99"/><stop offset="1" stop-color="#cd8a73"/></linearGradient><linearGradient id="n2jhd" x1="71.55" x2="71.55" y1="30.64" y2="81.82" gradientUnits="userSpaceOnUse"><stop offset="0" stop-color="#e2bf99"/><stop offset="1" stop-color="#cd8a73"/></linearGradient></defs><g><g><path fill="#ba7c61" d="M91.876 54.056h-4.408V31.905c0-13.743-11.182-24.924-24.924-24.924H33.175c-13.744 0-24.924 11.18-24.924 24.924v22.151H3.843V31.905c0-16.174 13.159-29.333 29.332-29.333h29.369c16.173 0 29.332 13.16 29.332 29.333z"/></g><g><path fill="#ba7c61" d="M91.875 31.904v22.15H87.47v-22.15c0-13.149-10.238-23.953-23.163-24.86a24.42 24.42 0 0 0-1.763-.064H47.859V2.571h14.684c.617 0 1.225.02 1.832.057 15.325.95 27.5 13.718 27.5 29.276z"/></g><g><path fill="url(#n2jha)" d="M61.731 9.076H33.987a2.645 2.645 0 0 1-2.645-2.645v-3.77A2.645 2.645 0 0 1 33.987.014h27.744a2.645 2.645 0 0 1 2.645 2.645v3.771a2.645 2.645 0 0 1-2.645 2.645z"/></g><g><path fill="url(#n2jhb)" d="M64.375 2.628v3.804c0 .211-.022.415-.07.612a2.648 2.648 0 0 1-2.573 2.032H47.86V.015h13.873a2.646 2.646 0 0 1 2.643 2.613z"/></g><g><g><path fill="#005fd2" d="M69.654 33.09H26.065c-12.727 0-23.14 10.413-23.14 23.14s10.413 23.14 23.14 23.14h5.785c3.063 0 5.979-1.316 8.004-3.615 4.248-4.822 11.763-4.822 16.01 0a10.667 10.667 0 0 0 8.005 3.616h5.785c12.727 0 23.14-10.414 23.14-23.14 0-12.728-10.413-23.141-23.14-23.141z"/></g><g><path fill="#005fd2" d="M69.654 33.09H26.065c-12.727 0-23.14 10.413-23.14 23.14s10.413 23.14 23.14 23.14h5.785c3.063 0 5.979-1.316 8.004-3.615 4.248-4.822 11.763-4.822 16.01 0a10.667 10.667 0 0 0 8.005 3.616h5.785c12.727 0 23.14-10.414 23.14-23.14 0-12.728-10.413-23.141-23.14-23.141z"/></g><g><path fill="#fffdf5" d="M69.654 33.09H26.065c-12.727 0-23.14 10.413-23.14 23.14s10.413 23.14 23.14 23.14h5.785c3.063 0 5.979-1.316 8.004-3.615 4.248-4.822 11.763-4.822 16.01 0a10.667 10.667 0 0 0 8.005 3.616h5.785c12.727 0 23.14-10.414 23.14-23.14 0-12.728-10.413-23.141-23.14-23.141z"/><path fill="none" stroke="#707070" stroke-miterlimit="50" d="M69.654 33.09v0H26.065c-12.727 0-23.14 10.413-23.14 23.14s10.413 23.14 23.14 23.14h5.785c3.063 0 5.979-1.316 8.004-3.615 4.248-4.822 11.763-4.822 16.01 0a10.667 10.667 0 0 0 8.005 3.616h5.785c12.727 0 23.14-10.414 23.14-23.14 0-12.728-10.413-23.141-23.14-23.141z"/></g></g><g><path fill="url(#n2jhc)" d="M47.86 69.69a13.125 13.125 0 0 0-9.843 4.446 8.22 8.22 0 0 1-6.167 2.786h-5.785c-11.41 0-20.692-9.282-20.692-20.691 0-11.41 9.283-20.693 20.692-20.693h43.589c11.409 0 20.691 9.282 20.691 20.693 0 11.409-9.282 20.691-20.691 20.691h-5.785a8.22 8.22 0 0 1-6.168-2.787 13.12 13.12 0 0 0-9.842-4.445zm47.383-13.46c0-14.11-11.48-25.59-25.59-25.59H26.066C11.955 30.64.476 42.12.476 56.23s11.48 25.59 25.59 25.59h5.784c3.765 0 7.353-1.621 9.842-4.446a8.22 8.22 0 0 1 12.335 0 13.121 13.121 0 0 0 9.842 4.446h5.785c14.11 0 25.59-11.48 25.59-25.59z"/></g><g><path fill="url(#n2jhd)" d="M91.875 43.552a25.636 25.636 0 0 0-4.406-5.671c-4.613-4.482-10.896-7.24-17.815-7.24H47.859v4.898h21.795c7.575 0 14.21 4.09 17.815 10.179a20.531 20.531 0 0 1 2.761 8.336c.077.715.114 1.44.114 2.176 0 11.409-9.28 20.692-20.69 20.692h-5.785a8.22 8.22 0 0 1-6.169-2.787 13.123 13.123 0 0 0-9.84-4.445v4.899a8.227 8.227 0 0 1 6.168 2.784 13.115 13.115 0 0 0 9.841 4.446h5.785c14.11 0 25.59-11.477 25.59-25.59 0-4.609-1.227-8.939-3.369-12.677z"/></g><g><path fill="#ba7c61" d="M35.623 60.812l2.826-2.395-3.304-3.899a12.019 12.019 0 0 0 1.858-2.297l-3.148-1.952c-1.635 2.634-4.748 4.27-8.127 4.27-3.378 0-6.493-1.636-8.128-4.27l-3.146 1.952a11.962 11.962 0 0 0 1.744 2.186l-3.4 4.01 2.827 2.395 3.56-4.2a13.76 13.76 0 0 0 4.691 1.507v5.78h3.704v-5.78a13.765 13.765 0 0 0 4.546-1.433z"/></g><g><path fill="#ba7c61" d="M80.095 60.812l2.825-2.395-3.304-3.899a12.013 12.013 0 0 0 1.859-2.297l-3.148-1.952c-1.635 2.634-4.749 4.27-8.127 4.27-3.378 0-6.493-1.636-8.128-4.27l-3.147 1.952a11.962 11.962 0 0 0 1.744 2.186l-3.399 4.01 2.826 2.395 3.56-4.2a13.766 13.766 0 0 0 4.692 1.507v5.78h3.704v-5.78a13.777 13.777 0 0 0 4.547-1.433z"/></g></g></svg>