<svg xmlns="http://www.w3.org/2000/svg" viewBox="0 0 46 66"><g><g><path fill="#bbdcff" d="M40.199 36.705l-5.511 3.182-7.977-4.467 2.95-5.105 2.773-.694 7.85-2.038z"/></g><g><path fill="#bbdcff" d="M39.343 46.367c-2.083 8.367-9.586 14.888-18.974 14.888h-.04C9.33 61.215.688 52.416.688 41.613c0-8.681 5.578-16.224 13.867-18.777l5.774 6.992c-6.481 0-11.785 5.304-11.785 11.786 0 6.481 5.304 11.785 11.785 11.785 4.675 0 8.879-2.79 10.764-7.032h8.25z"/></g><g><path fill="#bbdcff" d="M39.343 46.367c-2.083 8.367-9.586 14.888-18.974 14.888h-.04v-7.857c4.675 0 8.879-2.789 10.764-7.031z"/></g><g><g><g><g><path fill="#ba7c61" d="M22.294 47.506v-3.928h23.57v3.928z"/></g></g></g></g><g><path fill="#faf5dd" d="M30.15 61.255v4.662H10.51v-4.662c0-5.421 4.4-9.82 9.82-9.82 5.422 0 9.821 4.399 9.821 9.82z"/></g><g><path fill="#faf5dd" d="M40.285 27.583L26.71 35.42l-8.112-14.05 2.609-6.088 3.096-1.787 7.85.004.033-.02z"/></g><g><path fill="#bbdcff" d="M32.153 13.499L18.58 21.336 11.017 8.238l6.785-3.962 6.77-3.91z"/></g><g><path fill="#ba7c61" d="M20.33 16.08c-4.322 0-7.857 3.535-7.857 7.856 0 4.32 3.535 7.857 7.856 7.857 4.322 0 7.857-3.536 7.857-7.857s-3.535-7.857-7.857-7.857z"/></g><g><path fill="#ba7c61" d="M28.186 23.936c0 4.32-3.536 7.857-7.857 7.857V16.078c4.321 0 7.857 3.536 7.857 7.857z"/></g><g><path fill="#faf5dd" d="M24.258 23.936a3.94 3.94 0 0 1-3.929 3.928 3.94 3.94 0 0 1-3.928-3.928 3.94 3.94 0 0 1 3.928-3.929 3.94 3.94 0 0 1 3.929 3.929z"/></g></g></svg>