<svg xmlns="http://www.w3.org/2000/svg" viewBox="0 0 35 43"><defs><linearGradient id="u2dba" x1="17.46" x2="17.46" y1=".4" y2="42.52" gradientUnits="userSpaceOnUse"><stop offset="0" stop-color="#e2bf99"/><stop offset="1" stop-color="#cd8a73"/></linearGradient><linearGradient id="u2dbb" x1="22.47" x2="17.4" y1="12.54" y2="19.95" gradientUnits="userSpaceOnUse"><stop offset="0" stop-color="#e2bf99"/><stop offset="1" stop-color="#cd8a73"/></linearGradient></defs><g><g><g><path fill="url(#u2dba)" d="M17.462 28.318c-6.379 0-11.549-5.31-11.549-11.859 0-6.55 5.17-11.86 11.55-11.86 6.378 0 11.548 5.31 11.548 11.86s-5.17 11.859-11.549 11.859zm0-27.918C7.997.4 1.11 8.038.533 16.663a16.783 16.783 0 0 0 1.01 6.88c.838 2.298 2.204 4.367 3.878 6.15l12.041 12.825 12.041-12.825c1.675-1.783 3.04-3.852 3.878-6.15a16.783 16.783 0 0 0 1.01-6.88C33.816 8.038 26.928.4 17.462.4z"/></g><g><path fill="#faf5dd" d="M17.462 4.6c6.38 0 11.55 5.31 11.55 11.86 0 6.549-5.17 11.858-11.55 11.858-6.379 0-11.549-5.31-11.549-11.859 0-6.55 5.17-11.86 11.55-11.86z"/></g></g><g><path fill="url(#u2dbb)" d="M16.037 19.943a.962.962 0 0 1-.684-.283l-2.736-2.736a.967.967 0 1 1 1.368-1.368l2.052 2.052 4.788-4.788a.966.966 0 1 1 1.368 1.368L16.72 19.66a.964.964 0 0 1-.684.283z"/></g></g></svg>