<svg xmlns="http://www.w3.org/2000/svg" viewBox="0 0 71 72"><g><g><path fill="#fff" d="M65.023 47.127a7.72 7.72 0 0 0-7.719-7.719h-43.05a7.72 7.72 0 0 0-3.24 14.724 7.72 7.72 0 0 0 10.185 10.611 7.717 7.717 0 0 0 14.58 2.953 7.716 7.716 0 0 0 14.58-2.953 7.719 7.719 0 0 0 10.184-10.611 7.717 7.717 0 0 0 4.48-7.005z"/></g><g><path fill="#ba7c61" d="M50.926 16.622s3.103 8.652 16.891 17.702c5.805 3.81 2.504 9.377-2.263 10.027-2.371.323-5.125-.884-7.262-3.505-6.432-7.893-11.717-23.25-11.717-23.25z"/></g><g><path fill="#ba7c61" d="M20.632 16.622S17.53 25.274 3.741 34.324c-5.805 3.81-2.504 9.377 2.263 10.027 2.371.323 5.125-.884 7.262-3.505 6.432-7.893 11.717-23.25 11.717-23.25z"/></g><g><path fill="#ffdca8" d="M50.106 13.615H21.452s-7.584 22.017-7.584 32.025c0 10.007 8.322 18.364 21.911 18.364 13.59 0 21.911-8.357 21.911-18.364 0-10.008-7.584-32.025-7.584-32.025z"/></g><g><path fill="#ba7c61" d="M39.217 52.251c.188 0 .367.03.535.081 1.812-2.698-1.118-4.059-3.973-4.059-2.855 0-5.785 1.36-3.974 4.059.169-.052.348-.08.535-.08.933 0 1.69.694 1.69 1.552 0 .297-.093.573-.25.81.97.832 1.609 1.051 1.999 1.051.39 0 1.028-.219 2-1.052a1.45 1.45 0 0 1-.25-.81c0-.857.756-1.552 1.688-1.552z"/></g><g><path fill="#ba7c61" d="M39.752 52.333a1.8 1.8 0 0 0-.534-.082c-.934 0-1.69.695-1.69 1.553 0 .298.093.574.25.81-.97.832-1.61 1.052-1.999 1.052v-7.392c2.855 0 5.784 1.359 3.973 4.059z"/></g><g><path fill="#fff" d="M49.935 6.917a9.45 9.45 0 0 0-2.83.43C44.82 3.473 40.606.87 35.78.87c-4.825 0-9.041 2.602-11.327 6.479a9.45 9.45 0 0 0-2.83-.431 9.461 9.461 0 1 0 5.614 17.075 13.086 13.086 0 0 0 8.543 3.16c3.262 0 6.245-1.192 8.542-3.16a9.419 9.419 0 0 0 5.614 1.847c5.225 0 9.46-4.236 9.46-9.461.001-5.225-4.235-9.46-9.46-9.46z"/></g><g><path fill="#ba7c61" d="M29.932 41.558a2.844 2.844 0 1 1-5.688 0 2.844 2.844 0 0 1 5.688 0z"/></g><g><path fill="#ba7c61" d="M47.314 41.558a2.844 2.844 0 1 1-5.689 0 2.844 2.844 0 0 1 5.69 0z"/></g></g></svg>