<svg xmlns="http://www.w3.org/2000/svg" viewBox="0 0 172 156"><defs><mask id="q6txb" width="2" height="2" x="-1" y="-1"><path fill="#fff" d="M70 51h32v21H70z"/><path d="M96.009 51.169h-20.24a5.06 5.06 0 1 0 0 10.12v10.12h20.24v-10.12a5.06 5.06 0 0 0 0-10.12z"/></mask><filter id="q6txa" width="172" height="164" x="0" y="-19" filterUnits="userSpaceOnUse"><feOffset dy="3" in="SourceGraphic" result="FeOffset2049Out"/><feGaussianBlur in="FeOffset2049Out" result="FeGaussianBlur2050Out" stdDeviation="24 24"/></filter><mask id="q6txd" width="2" height="2" x="-1" y="-1"><path fill="#fff" d="M60 98h7v7h-7z"/><path d="M60.2 104.59v-6.423h6.422v6.423z"/></mask><filter id="q6txc" width="147" height="150" x="-10" y="28" filterUnits="userSpaceOnUse"><feOffset dy="3" in="SourceGraphic" result="FeOffset2067Out"/><feGaussianBlur in="FeOffset2067Out" result="FeGaussianBlur2068Out" stdDeviation="24 24"/></filter><mask id="q6txf" width="2" height="2" x="-1" y="-1"><path fill="#fff" d="M105 98h7v7h-7z"/><path d="M105.156 104.59v-6.423h6.422v6.423z"/></mask><filter id="q6txe" width="147" height="150" x="35" y="28" filterUnits="userSpaceOnUse"><feOffset dy="3" in="SourceGraphic" result="FeOffset2083Out"/><feGaussianBlur in="FeOffset2083Out" result="FeGaussianBlur2084Out" stdDeviation="24 24"/></filter><mask id="q6txh" width="2" height="2" x="-1" y="-1"><path fill="#fff" d="M53 67h65v33H53z"/><path d="M56.437 100.016h58.904a2.66 2.66 0 0 0 2.659-2.66v-18.26c0-6.18-5.01-11.19-11.19-11.19H64.968c-6.18 0-11.19 5.01-11.19 11.19v18.26a2.66 2.66 0 0 0 2.66 2.66z"/></mask><filter id="q6txg" width="205" height="176" x="-17" y="-3" filterUnits="userSpaceOnUse"><feOffset dy="3" in="SourceGraphic" result="FeOffset2099Out"/><feGaussianBlur in="FeOffset2099Out" result="FeGaussianBlur2100Out" stdDeviation="24 24"/></filter></defs><g><g><g><g filter="url(#q6txa)"><path fill="none" d="M96.009 51.169h-20.24a5.06 5.06 0 1 0 0 10.12v10.12h20.24v-10.12a5.06 5.06 0 0 0 0-10.12z" mask="url(&quot;#q6txb&quot;)"/><path fill="#e5e3db" d="M96.009 51.169h-20.24a5.06 5.06 0 1 0 0 10.12v10.12h20.24v-10.12a5.06 5.06 0 0 0 0-10.12z"/></g><path fill="#fffdf5" d="M96.009 51.169h-20.24a5.06 5.06 0 1 0 0 10.12v10.12h20.24v-10.12a5.06 5.06 0 0 0 0-10.12z"/></g><g><g><g filter="url(#q6txc)"><path fill="none" d="M60.2 104.59v-6.423h6.422v6.423z" mask="url(&quot;#q6txd&quot;)"/><path fill="#e5e3db" d="M60.2 104.59v-6.423h6.422v6.423z"/></g><path fill="#fffdf5" d="M60.2 104.59v-6.423h6.422v6.423z"/></g><g><g filter="url(#q6txe)"><path fill="none" d="M105.156 104.59v-6.423h6.422v6.423z" mask="url(&quot;#q6txf&quot;)"/><path fill="#e5e3db" d="M105.156 104.59v-6.423h6.422v6.423z"/></g><path fill="#fffdf5" d="M105.156 104.59v-6.423h6.422v6.423z"/></g></g><g><g filter="url(#q6txg)"><path fill="none" d="M56.437 100.016h58.904a2.66 2.66 0 0 0 2.659-2.66v-18.26c0-6.18-5.01-11.19-11.19-11.19H64.968c-6.18 0-11.19 5.01-11.19 11.19v18.26a2.66 2.66 0 0 0 2.66 2.66z" mask="url(&quot;#q6txh&quot;)"/><path fill="#e5e3db" d="M56.437 100.016h58.904a2.66 2.66 0 0 0 2.659-2.66v-18.26c0-6.18-5.01-11.19-11.19-11.19H64.968c-6.18 0-11.19 5.01-11.19 11.19v18.26a2.66 2.66 0 0 0 2.66 2.66z"/></g><path fill="#fffdf5" d="M56.437 100.016h58.904a2.66 2.66 0 0 0 2.659-2.66v-18.26c0-6.18-5.01-11.19-11.19-11.19H64.968c-6.18 0-11.19 5.01-11.19 11.19v18.26a2.66 2.66 0 0 0 2.66 2.66z"/></g><g><g><path fill="#d0d1d3" d="M62.244 93.594V74.328h2.335v19.266z"/></g></g><g><path fill="#a6a8aa" d="M60.2 91.356V89.41h6.422v1.946z"/></g></g></g></svg>