<svg xmlns="http://www.w3.org/2000/svg" viewBox="0 0 162 50"><g><g><g><path fill="#b5bcc3" d="M69.012 11.896h-.028l-2.198 11.486h-3.023L60.906 9.368h2.418l1.978 10.8h.028l2.116-10.8h3.132l2.089 10.8h.027l2.061-10.8h2.336l-2.886 14.014h-3.077z"/></g><g><path fill="#b5bcc3" d="M78.74 18.189c0-1.731.357-3.545 1.978-3.545s1.979 1.814 1.979 3.545c0 1.731-.385 3.572-1.979 3.572s-1.979-1.841-1.979-3.572zm-2.584-.028c0 4.315 2.446 5.331 4.562 5.331s4.534-.989 4.534-5.33c0-4.205-2.418-5.304-4.534-5.304-2.088 0-4.534 1.099-4.562 5.303z"/></g><g><path fill="#b5bcc3" d="M86.489 14.726c0-.577-.028-1.126-.083-1.703h2.253c.028.632.083 1.264.083 1.896h.027c.303-.797 1.072-2.034 2.638-2.034.138 0 .275.028.413.055v2.336a2.984 2.984 0 0 0-.687-.11c-1.017 0-2.144.632-2.144 2.556v5.66h-2.473z"/></g><g><path fill="#b5bcc3" d="M92.891 8.324h2.5v15.03h-2.5z"/></g><g><path fill="#b5bcc3" d="M99.212 18.106c0-2.06.494-3.407 1.868-3.407s1.924 1.456 1.924 3.462c0 1.924-.495 3.518-1.951 3.518-1.43 0-1.814-1.182-1.841-3.573zm3.82-9.782v6.21h-.028a2.77 2.77 0 0 0-2.666-1.649c-2.226 0-3.572 1.951-3.572 5.331 0 2.858 1.072 5.304 3.627 5.304 1.594 0 2.336-.88 2.748-1.759h.055c0 .522.027 1.072.082 1.594h2.336a18.841 18.841 0 0 1-.082-1.759V8.324z"/></g><g><path fill="#b5bcc3" d="M112.924 9.368h2.583v5.688h4.149V9.368h2.556v14.014h-2.556v-6.21h-4.15v6.183h-2.582z"/></g><g><path fill="#b5bcc3" d="M125.839 17.31c0-1.375.522-2.749 1.84-2.749 1.128 0 1.732.935 1.732 2.748zm5.386 3.627c-.467.33-1.21.797-2.72.797-1.924 0-2.639-1.072-2.639-2.83h5.963v-.495c0-4.232-1.896-5.524-4.122-5.524-2.638 0-4.259 2.39-4.259 5.469 0 2.775 1.456 5.166 4.781 5.166 1.045 0 2.116-.22 3.078-.66z"/></g><g><path fill="#b5bcc3" d="M138.342 18.299v.604c0 1.841-.55 2.94-2.034 2.94h-.192a1.504 1.504 0 0 1-1.401-1.593c0-1.512 1.264-1.951 3.38-1.951zm-4.754-2.693a4.874 4.874 0 0 1 2.83-1.017c1.43 0 1.924.962 1.924 1.978v.385h-.495c-3.16 0-5.44.715-5.44 3.518 0 1.923 1.483 3.022 3.077 3.022 1.484 0 2.253-.714 2.885-1.566h.028c-.028.467.027.934.137 1.401h2.253a13.437 13.437 0 0 1-.137-1.813v-4.507c0-2.583-.742-4.15-3.957-4.15a7.52 7.52 0 0 0-3.27.77z"/></g><g><path fill="#b5bcc3" d="M142.93 8.324h2.474v15.03h-2.473z"/></g><g><path fill="#b5bcc3" d="M148.262 10.907l2.473-.77v2.886h2.06v1.813h-2.06v5.386c0 1.1.412 1.43 1.127 1.43.33 0 .66-.083.934-.22v1.758c-.522.22-1.1.33-1.676.33-1.841 0-2.886-.852-2.886-3.023v-5.633h-1.648V13.05h1.648v-2.143z"/></g><g><path fill="#b5bcc3" d="M153.593 8.324h2.473v6.045h.055c.44-.632 1.017-1.484 2.555-1.484 2.336 0 3.05 1.731 3.05 3.82v6.65h-2.473v-6.183c0-1.594-.412-2.253-1.428-2.253-1.292 0-1.76 1.099-1.76 2.418v6.018h-2.472z"/></g><g><path fill="#b5bcc3" d="M63.653 34.292c0-3.847 1.32-5.221 2.94-5.221 1.622 0 2.941 1.346 2.941 5.22 0 3.875-1.319 5.25-2.94 5.25-1.622 0-2.94-1.402-2.94-5.25zm-2.638 0c0 5.029 2.666 7.2 5.579 7.2s5.578-2.171 5.578-7.2-2.665-7.2-5.578-7.2c-2.913 0-5.579 2.171-5.579 7.2z"/></g><g><path fill="#b5bcc3" d="M73.216 32.67c0-.577-.027-1.126-.082-1.703h2.253c.028.632.083 1.264.083 1.896h.027c.302-.797 1.1-2.034 2.638-2.034.137 0 .275.028.412.055v2.336a2.988 2.988 0 0 0-.714-.11c-1.017 0-2.144.632-2.144 2.556v5.66h-2.473z"/></g><g><path fill="#b5bcc3" d="M83.356 39.486c-.852 0-1.621-1.017-1.621-3.435 0-2.089.494-3.298 1.813-3.325 1.182-.028 2.006 1.126 2.006 3.297 0 2.336-.632 3.462-2.198 3.462zm-3.71 5.633c1.127.412 2.336.632 3.545.632 3.792 0 4.782-2.281 4.782-5.524v-7.611c0-.55.054-1.072.082-1.622h-2.253c-.028.522-.083 1.044-.083 1.594h-.082c-.522-.907-1.21-1.759-2.72-1.759-2.721 0-3.738 2.501-3.738 5.359 0 4.177 2.171 5.139 3.6 5.139 1.621 0 2.308-.962 2.72-1.76h.028v.99c0 1.621-.385 3.243-2.72 3.243a6.324 6.324 0 0 1-3.05-.88z"/></g><g><path fill="#b5bcc3" d="M95.09 36.847c0 1.842-.55 2.94-2.034 2.94h-.192a1.504 1.504 0 0 1-1.402-1.593c0-1.511 1.264-1.951 3.38-1.951h.22zm-4.754-3.297a4.874 4.874 0 0 1 2.83-1.017c1.429 0 1.924.962 1.924 1.979v.384h-.495c-3.16 0-5.44.715-5.44 3.518 0 1.923 1.483 3.023 3.077 3.023 1.484 0 2.253-.715 2.885-1.567h.028c-.028.467.027.935.137 1.402h2.253a13.436 13.436 0 0 1-.137-1.814v-4.507c0-2.583-.742-4.15-3.957-4.15a7.152 7.152 0 0 0-3.27.77z"/></g><g><path fill="#b5bcc3" d="M99.404 32.67c0-.577-.028-1.126-.083-1.703h2.336c.028.522.083 1.072.083 1.594h.027c.357-.632 1.072-1.732 2.748-1.732 2.336 0 3.05 1.732 3.05 3.82v6.65h-2.5v-6.21c0-1.594-.413-2.254-1.43-2.254-1.29 0-1.758 1.1-1.758 2.419v6.018h-2.473z"/></g><g><path fill="#b5bcc3" d="M109.516 30.967h2.473v10.332h-2.473zm-.055-4.397h2.583v2.446h-2.583z"/></g><g><path fill="#b5bcc3" d="M113.94 39.156l4.424-6.293h-4.286v-1.896h6.76v2.116l-4.342 6.32h4.479V41.3h-7.062v-2.143z"/></g><g><path fill="#b5bcc3" d="M127.79 36.243v.604c0 1.842-.55 2.94-2.034 2.94h-.192a1.504 1.504 0 0 1-1.401-1.593c0-1.511 1.264-1.951 3.38-1.951zm-4.754-2.693a4.874 4.874 0 0 1 2.83-1.017c1.43 0 1.924.962 1.924 1.979v.384h-.495c-3.16 0-5.44.715-5.44 3.518 0 1.923 1.483 3.023 3.077 3.023 1.484 0 2.253-.715 2.885-1.567h.028c-.028.467.027.935.137 1.402h2.253a13.436 13.436 0 0 1-.137-1.814v-4.507c0-2.583-.742-4.15-3.957-4.15a7.152 7.152 0 0 0-3.27.77z"/></g><g><path fill="#b5bcc3" d="M132.791 28.85l2.473-.769v2.886h2.061v1.813h-2.06v5.359c0 1.1.411 1.429 1.126 1.429.33 0 .66-.055.934-.22v1.759c-.522.247-1.1.357-1.676.33-1.841 0-2.885-.852-2.885-2.996v-5.66h-1.65v-1.814h1.65z"/></g><g><path fill="#b5bcc3" d="M138.891 30.967h2.501v10.332h-2.473zm-.055-4.397h2.556v2.446h-2.556z"/></g><g><path fill="#b5bcc3" d="M145.322 36.133c0-1.731.357-3.545 1.978-3.545s1.979 1.814 1.979 3.545c0 1.731-.385 3.572-1.979 3.572s-1.978-1.84-1.978-3.572zm-2.583-.028c0 4.342 2.445 5.332 4.561 5.332s4.534-.99 4.534-5.332c0-4.204-2.418-5.303-4.534-5.303-2.088 0-4.534 1.127-4.561 5.303z"/></g><g><path fill="#b5bcc3" d="M153.813 32.67c0-.577-.028-1.126-.083-1.703h2.336c.027.522.082 1.072.082 1.594h.028c.357-.632 1.071-1.732 2.748-1.732 2.335 0 3.05 1.732 3.05 3.82v6.65H159.5v-6.21c0-1.594-.412-2.254-1.43-2.254-1.29 0-1.758 1.1-1.758 2.419v6.018h-2.473z"/></g><g><g><path fill="#b5bcc3" d="M25.952 20.634c.027-.522.302-.906.852-1.236h.027c0 .11 0 .797.028 1.429l-.165.055-.192.357.357.385v.247c-.577-.33-.907-.687-.907-1.237M12.377 31.71l.33.137.275.632-.028.138zm23.907-13.493l.083-.165-.22-.357.11-.275.165-.302.494-.247.22.275-.22.11.11.22.11.082-.082.082-.522-.357-.193.302.385.495-.165.33-.55.164-.027-.247zm1.567-8.628l-.468-.33-.412-.22.33-.247.412.22.192.302zm-9.48 33.278c-9.92.027-18.22-7.475-19.264-17.34C7.981 14.864 15.702 5.328 26.392 4.229c.027.193.055.33.082.495 0 0 .028.055.028.137a18.805 18.805 0 0 0-11.184 5.221l2.253 2.254a15.102 15.102 0 0 1 3.297-2.446c-.192.22-.357.44-.494.66-.083.137-.11.302-.165.467a15.463 15.463 0 0 0-2.226 1.786l1.292 1.291a1.999 1.999 0 0 1-.577.165h-.138l-1.017-1.017a14.969 14.969 0 0 0-4.121 10.113h3.215a11.703 11.703 0 0 1 3.187-7.832l-.247-.247c.11-.247.22-.44.302-.577l.385.385c1.759-1.704 4.04-2.803 6.457-3.16v.631c-2.253.358-4.369 1.374-6.017 2.968l2.253 2.254c-.632.824-.934 1.868-.907 2.912a4.365 4.365 0 0 0 2.088 3.82c.358.247.742.44 1.127.605.137.274.33.55.55.797l.44-.44c.22.082.439.165.659.22l-.632.632c.22.165.467.33.742.44v.686c-.412-.137-.825-.384-1.182-.66l-2.253 2.254c.467.412 1.017.77 1.594 1.072-.11.192-.165.385-.22.605a7.72 7.72 0 0 1-1.841-1.237l-2.254 2.253a11.178 11.178 0 0 0 6.32 2.886v.632a11.739 11.739 0 0 1-5.88-2.336l.055.165-.165.412-1.154-.055-.44.467-.824-.082-.577.604c2.473 2.364 5.66 3.765 9.068 4.04v.632a15.765 15.765 0 0 1-9.563-4.205l-2.253 2.254c7.255 6.925 18.713 6.925 25.94-.055l-2.253-2.254a15.592 15.592 0 0 1-9.673 4.26v-.632a15.736 15.736 0 0 0 2.501-.385c.22-.055.495-.247.522-.962.165-2.858-1.511-3.874-2.913-4.561l.028-1.732c.88-.274 1.896-.55 2.665-1.071l.055-.055.055-.028c.88-.577 1.43-1.566 1.402-2.61 0-2.473-2.061-3.408-3.985-4.067 0-1.1.055-3.298.055-3.298l.824.412.33-.055.33.055-.027-.274-.193-.083v-.275l-.165.028.55-.715.22.11-.577.55.192-.028.22-.22.934-.164.055.082.88-.907-.138-.11h-.22l-.302.083-.055.082-.165.083-.027.11-.22-.028-.33.083-.137-.22.467-.165.165.165.11-.275.274-.137.11-.11-.192-.138c.22-.082.44-.165.66-.275.137.138.274.248.412.385l2.28-2.253-.165-.138c.22-.33.413-.714.55-1.099l.302.55.742-.742-.247-.385.385-.082-.825-1.045v-.384c0-.99-.302-1.979-.88-2.803l.303-.083.138-.165 1.676.88.522.577.247.88-.082.247.357-.028.275.137-.083.385 2.144-2.143a18.696 18.696 0 0 0-11.294-5.276c.027-.165.082-.33.11-.522l.027-.11c9.893 1.016 17.422 9.343 17.422 19.29.027 10.717-8.656 19.428-19.373 19.428M39.692 12.803c.302.33.577.66.851.989l.797.66.687.934.577.99-.055.164-.22-.11-.027.055a15.472 15.472 0 0 1 1.649 6.815h3.187a18.706 18.706 0 0 0-5.193-12.75zm-2.72 2.665c.411.467.796.962 1.153 1.484l.165-.385.193.11-.11.495.302-.11.082.11-.22.11.083.192-.055.055-.165-.082c.11.137.192.302.275.467l.247-.028.193.248v.357l.274.385-.137.22c.11.247.412.824.412.824l.275-.027-.137-.935-.083-.55-.275-.824-.412-.824-.714-1.017.055-.165.714.495-.11.11-.22-.11.88 1.291.384 1.237.138 1.072-.193 1.016-.137.193c.192.797.302 1.594.302 2.418h3.188a14.962 14.962 0 0 0-1.374-6.073l-.55.192-1.346-1.566-.22.027-1.072-.659.083-.33-.193-.22-.769-.027zm.604 6.815l-.028.165-.384.055-.138.11-.055.165-.33.247.055.247H39.5a17.3 17.3 0 0 0-.165-1.676l-.384.632v-.302l.302-.907c-.055-.165-.082-.33-.137-.494l-.11.467-.138.274-.33.193-.137.275-.577.082-.577.302zm-3.792-2.253l.082.137.137-.33h-.11l-.11-.22.248-.054.302.22.11-.358a8.279 8.279 0 0 0-.604-.77l-.33.358-.083.605.275.192v.055l-.275.055zm.961 10.36l-.22-.22-.44-.22-.576-.412c-.165.137-.33.275-.522.412l.357.137.385.303.22-.083.686.193zm-.467-12.174c.275.275.495.577.715.935h.357l-.137-.193c.027 0 .274-.055.274-.055l.22.083-.22.082-.082.083.247.192.687.824.138-.027v-.11h.192l.055.275-.138.055-.082-.165-.165.11.11.275.302.247.275-.302.11-.44.44-.165.604.577-.22.137-.137.632-.165.248h.302l.165.082.165-.22.22-.11.082-.467.303-.22.137-.22a8.899 8.899 0 0 0-.522-1.428l-.824-.522-.028-.495.275-.082c-.412-.66-.88-1.292-1.401-1.87l-2.254 2.254m1.649 11.24l.247.989-.137.44.33.33a11.144 11.144 0 0 0 3.077-7.256H37l.44.88.549.11.522-.193.082.33-.164.083-.413-.193.055.303.138.247-.77.22-.302.165h-.495l-.247-.11-.137.027.165.192-.193.22-.082-.082-.165.22-.275.11a9.612 9.612 0 0 1-.66 1.154l.165.055.11-.22.275.082.11.413.028.412-.193.44.11.164-.302.605-.22.302.302.302zm-.055 6.952a13.859 13.859 0 0 0 2.775-2.089l-2.253-2.253c-.165.165-.357.33-.55.495l.22.357h.358l.467.494-.467.605-.303.632.385.247v.22l-.44.385.11.275-.302.632m3.243-2.556c2.61-2.665 4.094-6.21 4.204-9.947H40.13a11.714 11.714 0 0 1-3.27 7.694l.962.962.11-.11.055-.55.11-.44.522.165-.11.22.165.055.247 1.237-.247.274zm2.665 2.693a18.652 18.652 0 0 0 5.331-12.64h-3.188c-.082 3.874-1.648 7.584-4.369 10.387zm-19.153-7.557a7.94 7.94 0 0 1-2.198-5.056h-.522l.165.247-.165.935.027.522v.247l.11.137-.055.385h-.11l-.22-.412-.137-.357.055-.055.137.165.193-.11-.275-.605.082-.137.165-.742-.11-.22h-.742l-.165.247h-.44l-.164.413.165.357-.165.467.385.192.467.88-.083.467.385.742.082 1.209.33.77-.11.796c.193.247.44.495.66.742zm-4.644-4.287l.22-.769h-.962c.028.495.083 1.017.165 1.511l.027.028h.523l.302-.467zm1.676-1.428h.77c.027-.358.055-.742.11-1.1l-.11-.11-.687-.11-.385.22-.055.632zm2.309 1.538h-.44l-.467-.494a7.408 7.408 0 0 0 1.978 4.232l2.253-2.254a4.45 4.45 0 0 1-.741-1.126l-.138.687-.247.164.055.138-.33.192-.22-.44.495-.137-.275-.385-.275-.274-.247.412.027.33-.467-.303.193-.137-.413-.302-.164.082zm-1.732-8.93a10.94 10.94 0 0 0-2.995 7.419h1.429l.055-.55.385-.44-.138-.247.687-1.291.467.055.495-.385h.165l.33-.22.082-.11-.385.083-.44.055.33-.303h.11l.33-.082h.165a7.428 7.428 0 0 1 1.182-1.731l-2.254-2.254m-3.27 17.285c.22.275.44.522.687.77l.522-.523-.137-.11-.714-.412zm-3.544-9.26c.054 1.428.274 2.802.714 4.149h.467l.825-.275-.028-1.429.824-1.044.083-.385.385-.082a5.61 5.61 0 0 1-.083-.934zm.054 4.121a14.862 14.862 0 0 1-.686-4.094H9.602A18.596 18.596 0 0 0 14.988 36.6l2.253-2.253c-.852-.852-1.566-1.814-2.198-2.83l-.11.467-.357-.11-.605-.99-.275-.055-.22-.274v-.385l-.082-.055-.22.165-.494-.138-.055-.274-.193-.11v.522l-.11-.055-.494-.715-.303-.055.083.275-.11.11.11.495.522.989-.192-.055-.33-.522-.687-1.649-.083-.907.22-.384.605-.248.192.193-.22.192.825.165-.275-.385.907.083.192.192.192.027m1.374-17.532A18.665 18.665 0 0 0 9.602 23.3h3.188a15.566 15.566 0 0 1 4.314-10.552l-2.254-2.254m4.122 4.095c.138.027.248 0 .385-.028-.027.11-.055.248-.082.358zm11.322 12.393c0 .275-.248.44-.605.632 0-.33.028-.962.028-1.099h.055c.302.137.522.302.522.467M31.64 6.455l-.467.027c-.275-.055-.632-.082-.99-.11v-.137l.55.055.248-.165.961.028.358.165-.193.164zm1.182 6.155c-.028.193-.11.385-.22.577a11.817 11.817 0 0 0-2.61-.714v-.632c.961.137 1.923.385 2.83.77m12.09-2.831c.853 1.539 4.727 2.17 6.54 6.046-.906-2.309-.439-5.854-2.005-7.75 4.644 3.408 2.665 8.986 2.913 10.717-2.391-5.166-5.936-4.067-7.447-9.013zm-34.128-.55c-1.072 1.264-2.968 2.006-4.067 3.298.797-3.792 3.71-6.87 7.2-7.612-1.705 1.264-2.062 3.023-3.133 4.314m38.443 11.13c1.264 2.39 3.187 2.912 2.968 7.886 1.044-4.396 3.544-6.018 3.517-8.82 1.731 7.309-2.913 8.188-4.094 11.239.192-4.397-2.638-5.277-2.391-10.305m7.144 5.55c-.055 7.557-6.127 8.684-7.666 10.773 1.291-4.81-.99-6.486.742-11.102.165 2.61 1.923 3.874.742 8.628 2.06-4.04 5.248-5.523 6.182-8.298zm-3.627-3.874c-.082-2.693 1.567-6.54.467-9.343 4.26 6.045-.247 9.645-.412 11.816-1.099-4.204-3.655-4.232-5.303-9.783.44.605.742.852 1.896 1.814a9.388 9.388 0 0 1 3.352 5.496M9.19 14.726c-1.649 5.551-4.205 5.579-5.276 9.783-.165-2.198-4.672-5.798-.412-11.816-1.1 2.803.55 6.65.44 9.343.411-2.171 1.62-4.122 3.352-5.496 1.154-.934 1.456-1.21 1.896-1.814M7.459 20.36c.22 5.028-2.583 5.908-2.391 10.305-1.21-3.078-5.826-3.93-4.095-11.24-.027 2.776 2.474 4.425 3.518 8.794-.22-4.919 1.731-5.469 2.968-7.86m31.38 24.732c3.023.797 5.634 1.43 7.915.275-2.199 1.924-4.727 2.61-8.409 2.226-3.05-.33-5.523-1.869-8.408-1.841h-.11a15.253 15.253 0 0 1 4.753 3.71l-1.401.192s-1.456-2.94-4.836-3.71c-3.38.77-4.837 3.71-4.837 3.71l-1.401-.192a15.253 15.253 0 0 1 4.754-3.71h-.11c-2.885-.028-5.359 1.511-8.409 1.841-3.682.412-6.237-.302-8.408-2.226 2.28 1.154 4.891.522 7.914-.275 1.786-.467 3.627-.77 5.496-.824a13.494 13.494 0 0 1 5 .852 13.494 13.494 0 0 1 5.002-.852c1.869.055 3.71.357 5.496.824m8.024-6.1c2.06-2.308 6.43-2.913 8.216-6.43-2.226 8.6-8.024 6.842-10.662 8.71 2.143-3.105.385-5.166 3.6-10.002-.412 2.034.852 4.946-1.154 7.722m-5.249 4.287c3.298-1.951 7.887-1.1 10.058-3.738-3.765 7.255-10.415 4.287-12.311 5.194 1.813-2.473.577-3.875 5.606-8.354-1.072 1.622.027 3.683-3.353 6.898m-24.319 1.456c-1.869-.907-8.518 2.061-12.31-5.194 2.198 2.611 6.787 1.787 10.084 3.738-3.38-3.188-2.28-5.249-3.352-6.898 5.001 4.48 3.792 5.88 5.578 8.354zm-9.315-8.051C6.44 34.594.369 33.467.314 25.91c.934 2.748 4.122 4.259 6.183 8.298-1.182-4.754.577-6.018.742-8.628 1.73 4.616-.55 6.293.742 11.102m.66-5.414c3.214 4.836 1.456 6.897 3.599 10.003-2.61-1.869-8.436-.11-10.662-8.711 1.786 3.517 6.183 4.122 8.244 6.43-2.006-2.776-.742-5.716-1.182-7.722M4.353 18.85c.248-1.76-1.73-7.31 2.913-10.773C5.727 10 6.194 13.517 5.26 15.826c1.786-3.875 5.66-4.507 6.54-5.991-1.511 4.919-5.056 3.82-7.447 9.013M45.902 9.23c-1.072-1.291-1.429-3.05-3.133-4.314 3.463.742 6.375 3.847 7.172 7.64-1.099-1.292-2.967-2.034-4.04-3.326"/></g></g><g><g><path fill="#b5bcc3" d="M29.524 34.457c.99.494 1.924 1.209 2.309 2.528.164-2.199-1.072-3.133-2.281-3.792l-.028 1.264"/></g></g><g><g><path fill="#b5bcc3" d="M36.174 12.17c0-2.005-1.456-4.204-5-4.973-.358-.055-.715-.11-1.073-.138 0 .303-.027.99-.027.99 0 .22-.028 1.017-.028 1.181.22.028.468.055.687.083 2.061.494 2.803 1.676 2.803 2.83 0 1.896-1.621 2.61-3.6 3.16l-.659.165c-.605.138-1.237.303-1.841.467-.22.055-.44.11-.66.193-2.198.66-4.094 1.731-4.094 4.451 0 2.721 2.17 3.71 4.287 4.37 0-.77-.028-1.567-.055-2.336-.962-.44-1.594-1.017-1.594-1.979 0-.961.605-1.51 1.511-1.923a8.54 8.54 0 0 1 .66-.247c.522-.193 1.127-.33 1.731-.495l.66-.165c2.967-.714 6.32-1.649 6.292-5.633"/></g></g><g><g><path fill="#b5bcc3" d="M25.485 31.214c0 1.1.797 1.676 1.594 2.144 0-.193-.028-1.87-.028-1.897.028-.33.33-.55.605-.66a10.44 10.44 0 0 1 1.291-.494c.248-.082.44-.165.66-.22 1.621-.494 3.49-1.099 3.49-3.077 0-1.979-1.594-2.776-3.353-3.38-.027.632-.027 1.539-.055 2.17.742.275 1.237.633 1.237 1.21 0 .714-.742 1.099-1.292 1.319-.22.082-.55.192-.66.22-.439.137-.879.274-1.318.44-.22.082-.44.164-.66.274-.714.385-1.511.962-1.511 1.951"/></g></g><g><g><path fill="#b5bcc3" d="M22.517 11.017l-.494.11.604-.99.687.028-.797.852m4.067-3.655c-.66.22-1.319.467-1.951.797-.687.22-1.676.274-2.693 1.374-.33.384-.632.797-.934 1.209-.302.44-.33 1.154-.55 1.511-.33.55-.247.88-.247.88a1.65 1.65 0 0 1-.357.686c-.33.385-.825.578-1.32.495.468.22 1.1-.082 1.1-.082-.11.302-.193.604-.247.907.522-1.182.989-1.594 1.154-1.732.22.055.687.028 1.538-.467.962-.55 2.419-1.456 2.83-2.033.44-.577 1.018-1.045 1.705-1.292 0-.824-.028-1.594-.028-2.253"/></g></g><g><g><path fill="#b5bcc3" d="M28.59 31.077c-.082.027-.33.137-.495.192-.164.055-.357.137-.357.192 0 0 .165 8.464.165 8.63 0 1.73.88 1.758.88 0 0-.11.192-9.152.192-9.152s-.248.083-.385.138"/></g></g><g><g><path fill="#b5bcc3" d="M27.656 28.274c.275-.083.55-.193.797-.248.192-.054.357-.11.55-.164 0-.523.164-7.887.192-9.206-.577.137-1.155.302-1.704.495.027.989.165 8.326.165 9.123"/></g></g><g><g><path fill="#b5bcc3" d="M28.398.162c-2.473 0-1.43 3.682-1.237 4.891 0 .055.192 8.327.247 10.223.385-.11.742-.192 1.127-.275l.742-.192c.027-1.841.22-9.728.22-9.783.165-1.264 1.456-4.864-1.1-4.864"/></g></g></g></g></svg>